External Loads File
version=1
nRows=93
nColumns=13
Range=5.000000e-03-10 seconds
endheader
time 	forceRightX 	forceRightY 	forceRightZ 	pointRightX 	pointRightY 	pointRightZ 	forceLeftX 	forceLeftY 	forceLeftZ 	pointLeftX 	pointLeftY 	pointLeftZ 		
5.005000 -67.591407 -85.297767 -0.000000 0.149306 0.450224 -0.126100 62.557911 803.089833 -0.000000 0.253315 0.168279 -0.363998
5.010000 -76.180358 -91.744633 -0.000000 0.157864 0.455980 -0.126698 85.510543 810.915299 -0.000000 0.244357 0.156812 -0.363963
5.015000 -83.346985 -98.007704 -0.000000 0.166879 0.461236 -0.126755 99.534960 815.787547 -0.000000 0.235145 0.158409 -0.363805
5.020000 -90.301416 -102.153291 -0.000000 0.175870 0.465878 -0.126995 118.280868 814.949158 -0.000000 0.225665 0.154543 -0.363625
5.025000 -96.097862 -104.042894 -0.000000 0.185055 0.469878 -0.127215 136.932751 807.546716 -0.000000 0.216125 0.151370 -0.363367
5.030000 -100.313366 -103.292953 -0.000000 0.194269 0.473259 -0.127228 155.212051 792.375110 -0.000000 0.206409 0.148862 -0.363154
5.035000 -102.608072 -99.777118 -0.000000 0.203681 0.475787 -0.127561 172.755662 768.369464 -0.000000 0.196711 0.147168 -0.362854
5.040000 -102.798370 -93.613522 -0.000000 0.213194 0.477775 -0.127642 189.119798 734.569236 -0.000000 0.186937 0.146006 -0.362557
5.045000 -100.686436 -85.310601 -0.000000 0.222332 0.479227 -0.127871 202.173395 690.605202 -0.000000 0.177342 0.145740 -0.362247
5.050000 -96.583991 -75.082529 -0.000000 0.231453 0.480132 -0.127922 212.287898 635.773549 -0.000000 0.167792 0.146063 -0.362049
5.055000 -90.697692 -63.431385 -0.000000 0.240172 0.480330 -0.128391 217.708718 570.542966 -0.000000 0.158510 0.147204 -0.361741
5.060000 -83.488448 -50.615984 -0.000000 0.248509 0.479909 -0.128106 217.588930 496.008571 -0.000000 0.149668 0.149046 -0.361437
5.065000 -75.578959 -36.590938 -0.000000 0.256439 0.479091 -0.127793 211.547270 414.109538 -0.000000 0.141262 0.151493 -0.361152
5.070000 -67.688911 -20.932000 -0.000000 0.263854 0.476920 -0.127606 199.832079 327.468495 -0.000000 0.133452 0.154557 -0.360843
5.075000 -60.505749 -2.933970 -0.000000 0.271027 0.474351 -0.127221 183.051799 239.261567 -0.000000 0.126136 0.158254 -0.360438
5.080000 -54.639758 18.251918 -0.000000 0.277512 0.470806 -0.126579 162.086955 152.983730 -0.000000 0.119252 0.162425 -0.360193
5.085000 -50.610072 43.603298 -0.000000 0.283465 0.466649 -0.126376 138.399356 71.766218 -0.000000 0.112521 0.166977 -0.359719
5.090000 -48.783371 74.022658 -0.000000 0.288716 0.461695 -0.125963 113.334783 -1.593632 -0.000000 0.105766 0.172220 -0.359298
5.095000 -50.609437 109.648859 -0.000000 0.293930 0.456281 -0.124873 88.652733 -63.676278 -0.000000 0.099353 0.171712 -0.358331
5.100000 -53.134129 152.285360 -0.000000 0.298235 0.450313 -0.124108 63.462415 -115.153057 -0.000000 0.093556 0.184413 -0.357664
5.105000 -60.331554 200.109074 -0.000000 0.302425 0.443740 -0.123087 40.875101 -151.976662 -0.000000 0.088255 0.190312 -0.357012
5.110000 -71.230468 252.853138 -0.000000 0.306284 0.436804 -0.122507 21.014512 -174.770898 -0.000000 0.083281 0.196532 -0.356643
5.115000 -85.132750 309.306037 -0.000000 0.309602 0.428730 -0.122243 4.302116 -184.299864 -0.000000 0.078326 0.203319 -0.356215
5.120000 -100.844861 367.850358 -0.000000 0.313785 0.420348 -0.122018 -8.679968 -182.320040 -0.000000 0.073493 0.210666 -0.356572
5.125000 -117.451829 426.455207 -0.000000 0.317344 0.411075 -0.121712 -17.043665 -171.438721 -0.000000 0.068843 0.218780 -0.356474
5.130000 -132.584721 483.320592 -0.000000 0.320840 0.401021 -0.121585 -20.795371 -154.605550 -0.000000 0.064335 0.227665 -0.356360
5.135000 -145.683414 536.122802 -0.000000 0.324250 0.390911 -0.121295 -19.810752 -134.655402 -0.000000 0.060241 0.237076 -0.356612
5.140000 -155.735653 582.870113 -0.000000 0.327081 0.380711 -0.121135 -14.958674 -113.749996 -0.000000 0.056512 0.246882 -0.356644
5.145000 -161.616238 622.140932 -0.000000 0.329527 0.370289 -0.120887 -7.632589 -93.186394 -0.000000 0.053282 0.256953 -0.356559
5.150000 -163.286662 653.041163 -0.000000 0.331540 0.359599 -0.120400 0.825921 -73.506619 -0.000000 0.050769 0.267128 -0.356603
5.155000 -160.790713 675.539416 -0.000000 0.333108 0.348667 -0.119821 9.291263 -54.749368 -0.000000 0.048880 0.277413 -0.356606
5.160000 -155.140801 690.089028 -0.000000 0.334299 0.337901 -0.119354 17.193121 -36.755138 -0.000000 0.047609 0.287922 -0.356580
5.165000 -146.484684 697.788237 -0.000000 0.335144 0.327059 -0.119341 24.393765 -19.391677 -0.000000 0.046863 0.298537 -0.356621
5.170000 -134.862991 699.920882 -0.000000 0.335608 0.315965 -0.119055 31.151387 -2.670473 -0.000000 0.046655 0.309223 -0.356696
5.175000 -120.032149 697.812894 -0.000000 0.335781 0.304811 -0.118946 37.874815 13.210418 -0.000000 0.046960 0.320389 -0.356619
5.180000 -104.480894 692.242549 -0.000000 0.335190 0.293680 -0.118548 44.806226 28.083442 -0.000000 0.047693 0.331199 -0.356416
5.185000 -88.386078 684.328227 -0.000000 0.333550 0.283277 -0.118275 51.932564 41.606198 -0.000000 0.049192 0.342182 -0.356469
5.190000 -68.539979 675.312826 -0.000000 0.331886 0.272459 -0.117562 59.287081 53.022852 -0.000000 0.051382 0.353862 -0.356375
5.195000 -51.754930 665.014188 -0.000000 0.329353 0.261813 -0.117868 65.954789 62.285991 -0.000000 0.054210 0.363738 -0.354817
5.200000 -33.568858 654.265572 -0.000000 0.326269 0.251484 -0.117649 71.663629 68.304385 -0.000000 0.058267 0.373747 -0.356140
5.205000 -15.523134 643.184298 -0.000000 0.322563 0.241474 -0.117596 75.582358 70.447468 -0.000000 0.063214 0.383290 -0.356302
5.210000 3.496574 632.019138 -0.000000 0.318360 0.231421 -0.117430 77.090025 67.827320 -0.000000 0.068942 0.392819 -0.356492
5.215000 21.143698 620.994260 -0.000000 0.313707 0.221895 -0.117283 75.184499 60.128445 -0.000000 0.075800 0.401530 -0.356957
5.220000 38.192395 610.410849 -0.000000 0.308161 0.212503 -0.117709 69.261893 46.980929 -0.000000 0.082960 0.409748 -0.357312
5.225000 54.622555 600.530241 -0.000000 0.302463 0.203532 -0.117574 58.770411 28.565423 -0.000000 0.091299 0.417605 -0.357811
5.230000 69.825526 591.579630 -0.000000 0.296116 0.195016 -0.117605 43.419804 5.582620 -0.000000 0.099899 0.424981 -0.358048
5.235000 84.589411 583.474920 -0.000000 0.289266 0.186923 -0.117696 23.357160 -21.042121 -0.000000 0.109073 0.431982 -0.358281
5.240000 98.116994 576.110143 -0.000000 0.282203 0.179377 -0.117275 -0.843477 -50.080893 -0.000000 0.118225 0.438919 -0.358164
5.245000 112.096167 568.765780 -0.000000 0.274542 0.172014 -0.117238 -28.370197 -80.221309 -0.000000 0.127963 0.445219 -0.358786
5.250000 125.317264 561.033726 -0.000000 0.266459 0.165805 -0.117299 -57.844256 -109.986390 -0.000000 0.137694 0.451439 -0.358438
5.255000 138.122299 552.150774 -0.000000 0.258162 0.159770 -0.117218 -87.732640 -137.679704 -0.000000 0.147447 0.457161 -0.358542
5.260000 149.450739 541.658309 -0.000000 0.249743 0.154658 -0.116996 -115.992152 -161.597205 -0.000000 0.156944 0.462433 -0.358192
5.265000 161.005654 528.357270 -0.000000 0.241053 0.148267 -0.117003 -141.336217 -179.508940 -0.000000 0.166628 0.467172 -0.358512
5.270000 170.447799 512.189723 -0.000000 0.232119 0.145167 -0.117045 -161.422978 -190.487606 -0.000000 0.176317 0.470787 -0.358711
5.275000 178.028457 492.434567 -0.000000 0.223198 0.144570 -0.117085 -175.045070 -193.853818 -0.000000 0.185711 0.474367 -0.359210
5.280000 184.697709 468.178014 -0.000000 0.214176 0.139220 -0.117004 -181.955932 -189.500397 -0.000000 0.195216 0.471546 -0.359379
5.285000 189.123506 439.583221 -0.000000 0.205403 0.138113 -0.117193 -181.787761 -178.944605 -0.000000 0.204302 0.473997 -0.359956
5.290000 191.691376 406.469489 -0.000000 0.196552 0.136691 -0.117251 -175.633054 -163.505534 -0.000000 0.213320 0.475901 -0.360390
5.295000 191.281683 369.645972 -0.000000 0.187635 0.135934 -0.117396 -164.591033 -145.112238 -0.000000 0.222038 0.482618 -0.360921
5.300000 188.668142 329.344690 -0.000000 0.178974 0.136042 -0.117468 -150.830178 -124.562696 -0.000000 0.230566 0.483732 -0.361358
5.305000 183.525863 286.595416 -0.000000 0.170561 0.136367 -0.117462 -136.051274 -102.714993 -0.000000 0.238917 0.483954 -0.361686
5.310000 175.788859 242.575791 -0.000000 0.162444 0.137387 -0.117543 -121.786365 -79.957701 -0.000000 0.246962 0.484274 -0.362096
5.315000 165.735294 198.486752 -0.000000 0.154718 0.138984 -0.117542 -109.282567 -56.306015 -0.000000 0.254286 0.483544 -0.362285
5.320000 154.348180 155.075104 -0.000000 0.147298 0.140905 -0.117485 -99.514993 -31.324663 -0.000000 0.261591 0.481917 -0.362533
5.325000 142.275873 113.209542 -0.000000 0.139990 0.143922 -0.117359 -92.828616 -4.699393 -0.000000 0.268765 0.479189 -0.362895
5.330000 129.678553 74.171008 -0.000000 0.133079 0.147234 -0.117392 -89.166407 23.491136 -0.000000 0.275417 0.475627 -0.363237
5.335000 117.012151 38.903439 -0.000000 0.126713 0.150877 -0.117316 -88.572048 53.185964 -0.000000 0.281568 0.472994 -0.363534
5.340000 104.938718 7.187421 -0.000000 0.120282 0.155176 -0.117492 -90.745451 85.043948 -0.000000 0.287067 0.467723 -0.363538
5.345000 93.458023 -20.215828 -0.000000 0.114005 0.160000 -0.117855 -95.920183 118.906046 -0.000000 0.292341 0.462869 -0.363487
5.350000 82.666751 -43.096864 -0.000000 0.108636 0.165312 -0.117899 -104.394541 154.778832 -0.000000 0.297629 0.457267 -0.363605
5.355000 72.494947 -61.367685 -0.000000 0.103370 0.171022 -0.118080 -116.320576 192.416057 -0.000000 0.302628 0.451060 -0.363472
5.360000 62.900431 -74.930189 -0.000000 0.098385 0.177131 -0.118234 -131.827118 231.032563 -0.000000 0.307090 0.444010 -0.363087
5.365000 53.689368 -83.997254 -0.000000 0.093742 0.183741 -0.118330 -149.921577 269.950974 -0.000000 0.311988 0.436172 -0.363400
5.370000 45.067359 -88.660106 -0.000000 0.089506 0.190768 -0.118424 -169.982002 307.915890 -0.000000 0.316670 0.427511 -0.363764
5.375000 36.999447 -89.366228 -0.000000 0.085659 0.198269 -0.118423 -189.814781 344.428491 -0.000000 0.321227 0.417150 -0.364266
5.380000 30.151991 -86.394626 -0.000000 0.081945 0.206154 -0.118310 -209.510549 377.788838 -0.000000 0.325554 0.407391 -0.364459
5.385000 24.696295 -80.351488 -0.000000 0.078663 0.214403 -0.118200 -227.887118 407.225663 -0.000000 0.329246 0.397480 -0.364653
5.390000 20.569105 -71.897680 -0.000000 0.075884 0.223276 -0.118146 -243.258438 432.696020 -0.000000 0.332444 0.387057 -0.364937
5.395000 17.929685 -61.614603 -0.000000 0.073340 0.232306 -0.118060 -255.842205 453.664894 -0.000000 0.335291 0.376644 -0.365155
5.400000 16.774603 -50.129232 -0.000000 0.071215 0.241650 -0.118013 -265.947695 470.105302 -0.000000 0.337563 0.366431 -0.365060
5.405000 16.827215 -38.150285 -0.000000 0.068864 0.251669 -0.118754 -271.833838 483.650702 -0.000000 0.339332 0.355834 -0.365074
5.410000 18.127593 -26.274110 -0.000000 0.067603 0.261824 -0.118905 -275.381241 494.283906 -0.000000 0.340554 0.344972 -0.364781
5.415000 20.243695 -15.374819 -0.000000 0.066959 0.272247 -0.119034 -271.985805 505.803903 -0.000000 0.341143 0.331446 -0.364698
5.420000 23.097794 -6.021350 -0.000000 0.066866 0.282963 -0.119373 -265.893064 517.115914 -0.000000 0.341166 0.317961 -0.364697
5.425000 26.156376 1.356215 -0.000000 0.067367 0.293838 -0.119691 -261.656030 527.153596 -0.000000 0.340498 0.306780 -0.364748
5.430000 28.740153 6.096154 -0.000000 0.068690 0.304739 -0.119938 -255.338784 538.936214 -0.000000 0.339113 0.295712 -0.364848
5.435000 30.292723 7.877404 -0.000000 0.070373 0.315803 -0.120309 -246.296096 553.245228 -0.000000 0.337136 0.284824 -0.365503
5.440000 30.151216 7.285072 -0.000000 0.072861 0.326671 -0.120678 -246.204653 565.191478 -0.000000 0.334200 0.279657 -0.364994
5.445000 28.252862 3.134903 -0.000000 0.075930 0.337550 -0.121093 -230.142490 585.533860 -0.000000 0.330672 0.268637 -0.364913
5.450000 24.082659 -3.281634 -0.000000 0.079721 0.348365 -0.121552 -215.283796 606.445935 -0.000000 0.331715 0.258359 -0.361115
5.455000 17.441361 -11.898583 -0.000000 0.084258 0.358958 -0.121906 -188.982394 631.866324 -0.000000 0.321748 0.248080 -0.364844
5.460000 8.454857 -21.598790 -0.000000 0.089328 0.369759 -0.122306 -162.126766 657.112744 -0.000000 0.316520 0.237817 -0.364782
5.465000 -2.705851 -31.811692 -0.000000 0.094930 0.379208 -0.122872 -129.349299 682.733545 -0.000000 0.310744 0.225162 -0.364747
